<svg xmlns="http://www.w3.org/2000/svg" width="805" height="600"><rect width="805" height="600" x="0" y="0" fill="#FFFFFF" id="backgorund"/><g id="viz"><g transform="translate(0,0)"><g transform="translate(50,50)"><g><path fill="#cccccc" d="M0,462.5L48.62068965517241,459.375L145.86206896551724,412.5L194.48275862068965,462.5L218.79310344827587,406.25L267.41379310344826,340.625L291.7241379310345,406.25L316.0344827586207,440.625L340.3448275862069,387.5L364.65517241379314,453.125L388.9655172413793,496.875L413.27586206896547,196.87500000000003L437.58620689655174,300L461.8965517241379,212.50000000000003L486.2068965517242,193.74999999999997L510.51724137931035,131.24999999999997L534.8275862068965,53.12499999999998L559.1379310344828,18.74999999999999L583.448275862069,81.24999999999999L607.7586206896551,31.25L632.0689655172414,106.25000000000001L656.3793103448276,246.875L680.6896551724138,125L705,65.62499999999999L705,500L680.6896551724138,500L656.3793103448276,500L632.0689655172414,500L607.7586206896551,500L583.448275862069,500L559.1379310344828,500L534.8275862068965,500L510.51724137931035,500L486.2068965517242,500L461.8965517241379,500L437.58620689655174,500L413.27586206896547,500L388.9655172413793,500L364.65517241379314,500L340.3448275862069,500L316.0344827586207,500L291.7241379310345,500L267.41379310344826,500L218.79310344827587,500L194.48275862068965,500L145.86206896551724,500L48.62068965517241,500L0,500Z"><title/></path></g><g id="xAxis" transform="translate(0,500)" fill="none" font-size="10" font-family="sans-serif" text-anchor="middle"><path class="domain" stroke="currentColor" d="M0.5,0.5H705.5"/><g class="tick" opacity="1" transform="translate(0.5,0)"><line stroke="currentColor" y2="6"/><text fill="currentColor" y="9" dy="0.71em">1,988</text></g><g class="tick" opacity="1" transform="translate(49.12068965517241,0)"><line stroke="currentColor" y2="6"/><text fill="currentColor" y="9" dy="0.71em">1,990</text></g><g class="tick" opacity="1" transform="translate(97.74137931034483,0)"><line stroke="currentColor" y2="6"/><text fill="currentColor" y="9" dy="0.71em">1,992</text></g><g class="tick" opacity="1" transform="translate(146.36206896551724,0)"><line stroke="currentColor" y2="6"/><text fill="currentColor" y="9" dy="0.71em">1,994</text></g><g class="tick" opacity="1" transform="translate(194.98275862068965,0)"><line stroke="currentColor" y2="6"/><text fill="currentColor" y="9" dy="0.71em">1,996</text></g><g class="tick" opacity="1" transform="translate(243.6034482758621,0)"><line stroke="currentColor" y2="6"/><text fill="currentColor" y="9" dy="0.71em">1,998</text></g><g class="tick" opacity="1" transform="translate(292.2241379310345,0)"><line stroke="currentColor" y2="6"/><text fill="currentColor" y="9" dy="0.71em">2,000</text></g><g class="tick" opacity="1" transform="translate(340.8448275862069,0)"><line stroke="currentColor" y2="6"/><text fill="currentColor" y="9" dy="0.71em">2,002</text></g><g class="tick" opacity="1" transform="translate(389.4655172413793,0)"><line stroke="currentColor" y2="6"/><text fill="currentColor" y="9" dy="0.71em">2,004</text></g><g class="tick" opacity="1" transform="translate(438.08620689655174,0)"><line stroke="currentColor" y2="6"/><text fill="currentColor" y="9" dy="0.71em">2,006</text></g><g class="tick" opacity="1" transform="translate(486.7068965517242,0)"><line stroke="currentColor" y2="6"/><text fill="currentColor" y="9" dy="0.71em">2,008</text></g><g class="tick" opacity="1" transform="translate(535.3275862068965,0)"><line stroke="currentColor" y2="6"/><text fill="currentColor" y="9" dy="0.71em">2,010</text></g><g class="tick" opacity="1" transform="translate(583.948275862069,0)"><line stroke="currentColor" y2="6"/><text fill="currentColor" y="9" dy="0.71em">2,012</text></g><g class="tick" opacity="1" transform="translate(632.5689655172414,0)"><line stroke="currentColor" y2="6"/><text fill="currentColor" y="9" dy="0.71em">2,014</text></g><g class="tick" opacity="1" transform="translate(681.1896551724138,0)"><line stroke="currentColor" y2="6"/><text fill="currentColor" y="9" dy="0.71em">2,016</text></g></g><g id="yAxis" fill="none" font-size="10" font-family="sans-serif" text-anchor="end"><path class="domain" stroke="currentColor" d="M0.5,500.5V0.5"/><g class="tick" opacity="1" transform="translate(0,500.5)"><line stroke="currentColor" x2="-6"/><text fill="currentColor" x="-9" dy="0.32em">0</text></g><g class="tick" opacity="1" transform="translate(0,438)"><line stroke="currentColor" x2="-6"/><text fill="currentColor" x="-9" dy="0.32em">20</text></g><g class="tick" opacity="1" transform="translate(0,375.5)"><line stroke="currentColor" x2="-6"/><text fill="currentColor" x="-9" dy="0.32em">40</text></g><g class="tick" opacity="1" transform="translate(0,313)"><line stroke="currentColor" x2="-6"/><text fill="currentColor" x="-9" dy="0.32em">60</text></g><g class="tick" opacity="1" transform="translate(0,250.5)"><line stroke="currentColor" x2="-6"/><text fill="currentColor" x="-9" dy="0.32em">80</text></g><g class="tick" opacity="1" transform="translate(0,188)"><line stroke="currentColor" x2="-6"/><text fill="currentColor" x="-9" dy="0.32em">100</text></g><g class="tick" opacity="1" transform="translate(0,125.5)"><line stroke="currentColor" x2="-6"/><text fill="currentColor" x="-9" dy="0.32em">120</text></g><g class="tick" opacity="1" transform="translate(0,63)"><line stroke="currentColor" x2="-6"/><text fill="currentColor" x="-9" dy="0.32em">140</text></g><g class="tick" opacity="1" transform="translate(0,0.5)"><line stroke="currentColor" x2="-6"/><text fill="currentColor" x="-9" dy="0.32em">160</text></g></g><text y="496" x="705" text-anchor="end" style="font-family: Arial, sans-serif; font-size: 12px; fill: rgb(123, 123, 123); font-weight: bold;">publised_year</text><text x="4" text-anchor="start" dominant-baseline="hanging" style="font-family: Arial, sans-serif; font-size: 12px; fill: rgb(123, 123, 123); font-weight: bold;">total_s</text><g id="labels"><text x="559.1379310344828" y="259.375" text-anchor="middle" alignment-baseline="middle" style="font-family: Arial, sans-serif; font-size: 10px; fill: black; font-weight: bold;"/></g></g><text x="4" y="4" style="font-family: Arial, sans-serif; font-size: 12px; fill: black; font-weight: bold; dominant-baseline: hanging;"/></g></g></svg>