<svg xmlns="http://www.w3.org/2000/svg" width="805" height="600"><rect width="805" height="600" x="0" y="0" fill="#FFFFFF" id="backgorund"/><g id="viz"><g transform="translate(0,0)"><g transform="translate(50,50)"><g><path fill="#cccccc" d="M0,488.88888888888886L212.0300751879699,488.88888888888886L265.03759398496237,488.88888888888886L333.9473684210526,488.88888888888886L355.15037593984965,488.88888888888886L371.05263157894734,488.88888888888886L381.65413533834584,488.88888888888886L386.95488721804514,488.88888888888886L392.25563909774434,488.88888888888886L408.15789473684214,488.88888888888886L413.45864661654133,488.88888888888886L424.0601503759398,488.88888888888886L434.6616541353383,488.88888888888886L445.2631578947368,488.88888888888886L450.5639097744361,488.88888888888886L466.4661654135338,477.7777777777778L471.7669172932331,466.6666666666667L477.0676691729323,488.88888888888886L482.3684210526316,488.88888888888886L492.9699248120301,488.88888888888886L514.172932330827,488.88888888888886L530.0751879699247,488.88888888888886L540.6766917293232,488.88888888888886L545.9774436090225,477.7777777777778L551.2781954887217,466.6666666666667L556.578947368421,466.6666666666667L561.8796992481202,488.88888888888886L572.4812030075187,477.7777777777778L577.781954887218,477.7777777777778L583.0827067669172,488.88888888888886L588.3834586466165,477.7777777777778L593.6842105263157,455.55555555555554L598.984962406015,466.6666666666667L604.2857142857142,466.6666666666667L609.5864661654135,455.55555555555554L614.8872180451127,411.1111111111111L620.187969924812,377.77777777777777L625.4887218045112,388.8888888888889L630.7894736842105,377.77777777777777L636.0902255639097,377.77777777777777L641.390977443609,400L646.6917293233082,455.55555555555554L651.9924812030075,400L657.2932330827067,311.11111111111114L662.593984962406,311.11111111111114L667.8947368421052,277.77777777777777L673.1954887218045,288.88888888888886L678.4962406015037,377.77777777777777L683.796992481203,244.44444444444446L689.0977443609022,188.88888888888889L694.3984962406015,177.77777777777774L699.6992481203007,0L705,44.44444444444445L705,500L699.6992481203007,500L694.3984962406015,500L689.0977443609022,500L683.796992481203,500L678.4962406015037,500L673.1954887218045,500L667.8947368421052,500L662.593984962406,500L657.2932330827067,500L651.9924812030075,500L646.6917293233082,500L641.390977443609,500L636.0902255639097,500L630.7894736842105,500L625.4887218045112,500L620.187969924812,500L614.8872180451127,500L609.5864661654135,500L604.2857142857142,500L598.984962406015,500L593.6842105263157,500L588.3834586466165,500L583.0827067669172,500L577.781954887218,500L572.4812030075187,500L561.8796992481202,500L556.578947368421,500L551.2781954887217,500L545.9774436090225,500L540.6766917293232,500L530.0751879699247,500L514.172932330827,500L492.9699248120301,500L482.3684210526316,500L477.0676691729323,500L471.7669172932331,500L466.4661654135338,500L450.5639097744361,500L445.2631578947368,500L434.6616541353383,500L424.0601503759398,500L413.45864661654133,500L408.15789473684214,500L392.25563909774434,500L386.95488721804514,500L381.65413533834584,500L371.05263157894734,500L355.15037593984965,500L333.9473684210526,500L265.03759398496237,500L212.0300751879699,500L0,500Z"><title/></path></g><g id="xAxis" transform="translate(0,500)" fill="none" font-size="10" font-family="sans-serif" text-anchor="middle"><path class="domain" stroke="currentColor" d="M0.5,0.5H705.5"/><g class="tick" opacity="1" transform="translate(16.402255639097746,0)"><line stroke="currentColor" y2="6"/><text fill="currentColor" y="9" dy="0.71em">1,890</text></g><g class="tick" opacity="1" transform="translate(69.40977443609022,0)"><line stroke="currentColor" y2="6"/><text fill="currentColor" y="9" dy="0.71em">1,900</text></g><g class="tick" opacity="1" transform="translate(122.4172932330827,0)"><line stroke="currentColor" y2="6"/><text fill="currentColor" y="9" dy="0.71em">1,910</text></g><g class="tick" opacity="1" transform="translate(175.42481203007517,0)"><line stroke="currentColor" y2="6"/><text fill="currentColor" y="9" dy="0.71em">1,920</text></g><g class="tick" opacity="1" transform="translate(228.43233082706766,0)"><line stroke="currentColor" y2="6"/><text fill="currentColor" y="9" dy="0.71em">1,930</text></g><g class="tick" opacity="1" transform="translate(281.4398496240601,0)"><line stroke="currentColor" y2="6"/><text fill="currentColor" y="9" dy="0.71em">1,940</text></g><g class="tick" opacity="1" transform="translate(334.4473684210526,0)"><line stroke="currentColor" y2="6"/><text fill="currentColor" y="9" dy="0.71em">1,950</text></g><g class="tick" opacity="1" transform="translate(387.45488721804514,0)"><line stroke="currentColor" y2="6"/><text fill="currentColor" y="9" dy="0.71em">1,960</text></g><g class="tick" opacity="1" transform="translate(440.46240601503763,0)"><line stroke="currentColor" y2="6"/><text fill="currentColor" y="9" dy="0.71em">1,970</text></g><g class="tick" opacity="1" transform="translate(493.4699248120301,0)"><line stroke="currentColor" y2="6"/><text fill="currentColor" y="9" dy="0.71em">1,980</text></g><g class="tick" opacity="1" transform="translate(546.4774436090225,0)"><line stroke="currentColor" y2="6"/><text fill="currentColor" y="9" dy="0.71em">1,990</text></g><g class="tick" opacity="1" transform="translate(599.484962406015,0)"><line stroke="currentColor" y2="6"/><text fill="currentColor" y="9" dy="0.71em">2,000</text></g><g class="tick" opacity="1" transform="translate(652.4924812030075,0)"><line stroke="currentColor" y2="6"/><text fill="currentColor" y="9" dy="0.71em">2,010</text></g><g class="tick" opacity="1" transform="translate(705.5,0)"><line stroke="currentColor" y2="6"/><text fill="currentColor" y="9" dy="0.71em">2,020</text></g></g><g id="yAxis" fill="none" font-size="10" font-family="sans-serif" text-anchor="end"><path class="domain" stroke="currentColor" d="M0.5,500.5V0.5"/><g class="tick" opacity="1" transform="translate(0,500.5)"><line stroke="currentColor" x2="-6"/><text fill="currentColor" x="-9" dy="0.32em">0</text></g><g class="tick" opacity="1" transform="translate(0,444.9444444444444)"><line stroke="currentColor" x2="-6"/><text fill="currentColor" x="-9" dy="0.32em">5</text></g><g class="tick" opacity="1" transform="translate(0,389.3888888888889)"><line stroke="currentColor" x2="-6"/><text fill="currentColor" x="-9" dy="0.32em">10</text></g><g class="tick" opacity="1" transform="translate(0,333.83333333333337)"><line stroke="currentColor" x2="-6"/><text fill="currentColor" x="-9" dy="0.32em">15</text></g><g class="tick" opacity="1" transform="translate(0,278.27777777777777)"><line stroke="currentColor" x2="-6"/><text fill="currentColor" x="-9" dy="0.32em">20</text></g><g class="tick" opacity="1" transform="translate(0,222.7222222222222)"><line stroke="currentColor" x2="-6"/><text fill="currentColor" x="-9" dy="0.32em">25</text></g><g class="tick" opacity="1" transform="translate(0,167.16666666666669)"><line stroke="currentColor" x2="-6"/><text fill="currentColor" x="-9" dy="0.32em">30</text></g><g class="tick" opacity="1" transform="translate(0,111.6111111111111)"><line stroke="currentColor" x2="-6"/><text fill="currentColor" x="-9" dy="0.32em">35</text></g><g class="tick" opacity="1" transform="translate(0,56.05555555555558)"><line stroke="currentColor" x2="-6"/><text fill="currentColor" x="-9" dy="0.32em">40</text></g><g class="tick" opacity="1" transform="translate(0,0.5)"><line stroke="currentColor" x2="-6"/><text fill="currentColor" x="-9" dy="0.32em">45</text></g></g><text y="496" x="705" text-anchor="end" style="font-family: Arial, sans-serif; font-size: 12px; fill: rgb(123, 123, 123); font-weight: bold;">publised_year</text><text x="4" text-anchor="start" dominant-baseline="hanging" style="font-family: Arial, sans-serif; font-size: 12px; fill: rgb(123, 123, 123); font-weight: bold;">total_p</text><g id="labels"><text x="699.6992481203007" y="250" text-anchor="end" alignment-baseline="middle" style="font-family: Arial, sans-serif; font-size: 10px; fill: black; font-weight: bold;"/></g></g><text x="4" y="4" style="font-family: Arial, sans-serif; font-size: 12px; fill: black; font-weight: bold; dominant-baseline: hanging;"/></g></g></svg>