<svg xmlns="http://www.w3.org/2000/svg" width="805" height="600"><rect width="805" height="600" x="0" y="0" fill="#FFFFFF" id="backgorund"/><g id="viz"><g transform="translate(0,0)"><g transform="translate(50,50)"><g><path fill="#cccccc" d="M0,499.2307692307693L212.0300751879699,496.9230769230769L265.03759398496237,482.3076923076923L333.9473684210526,499.2307692307693L355.15037593984965,499.2307692307693L371.05263157894734,492.3076923076923L381.65413533834584,494.61538461538464L386.95488721804514,491.53846153846155L392.25563909774434,486.9230769230769L408.15789473684214,499.2307692307693L413.45864661654133,497.69230769230774L424.0601503759398,497.69230769230774L434.6616541353383,498.46153846153845L445.2631578947368,497.69230769230774L450.5639097744361,494.61538461538464L466.4661654135338,498.46153846153845L471.7669172932331,495.38461538461536L477.0676691729323,499.2307692307693L482.3684210526316,499.2307692307693L492.9699248120301,463.07692307692304L514.172932330827,499.2307692307693L530.0751879699247,499.2307692307693L540.6766917293232,499.2307692307693L545.9774436090225,493.0769230769231L551.2781954887217,444.61538461538464L556.578947368421,451.53846153846155L561.8796992481202,485.38461538461536L572.4812030075187,496.9230769230769L577.781954887218,484.61538461538464L583.0827067669172,441.53846153846155L588.3834586466165,447.69230769230774L593.6842105263157,450L598.984962406015,469.2307692307692L604.2857142857142,471.5384615384615L609.5864661654135,453.84615384615387L614.8872180451127,421.53846153846155L620.187969924812,458.46153846153845L625.4887218045112,296.15384615384613L630.7894736842105,207.69230769230768L636.0902255639097,286.15384615384613L641.390977443609,340.7692307692308L646.6917293233082,487.6923076923077L651.9924812030075,304.61538461538464L657.2932330827067,260L662.593984962406,126.92307692307692L667.8947368421052,165.38461538461542L673.1954887218045,59.230769230769255L678.4962406015037,304.61538461538464L683.796992481203,333.84615384615387L689.0977443609022,7.692307692307665L694.3984962406015,85.38461538461539L699.6992481203007,26.15384615384614L705,14.615384615384642L705,500L699.6992481203007,500L694.3984962406015,500L689.0977443609022,500L683.796992481203,500L678.4962406015037,500L673.1954887218045,500L667.8947368421052,500L662.593984962406,500L657.2932330827067,500L651.9924812030075,500L646.6917293233082,500L641.390977443609,500L636.0902255639097,500L630.7894736842105,500L625.4887218045112,500L620.187969924812,500L614.8872180451127,500L609.5864661654135,500L604.2857142857142,500L598.984962406015,500L593.6842105263157,500L588.3834586466165,500L583.0827067669172,500L577.781954887218,500L572.4812030075187,500L561.8796992481202,500L556.578947368421,500L551.2781954887217,500L545.9774436090225,500L540.6766917293232,500L530.0751879699247,500L514.172932330827,500L492.9699248120301,500L482.3684210526316,500L477.0676691729323,500L471.7669172932331,500L466.4661654135338,500L450.5639097744361,500L445.2631578947368,500L434.6616541353383,500L424.0601503759398,500L413.45864661654133,500L408.15789473684214,500L392.25563909774434,500L386.95488721804514,500L381.65413533834584,500L371.05263157894734,500L355.15037593984965,500L333.9473684210526,500L265.03759398496237,500L212.0300751879699,500L0,500Z"><title/></path></g><g id="xAxis" transform="translate(0,500)" fill="none" font-size="10" font-family="sans-serif" text-anchor="middle"><path class="domain" stroke="currentColor" d="M0.5,0.5H705.5"/><g class="tick" opacity="1" transform="translate(16.402255639097746,0)"><line stroke="currentColor" y2="6"/><text fill="currentColor" y="9" dy="0.71em">1,890</text></g><g class="tick" opacity="1" transform="translate(69.40977443609022,0)"><line stroke="currentColor" y2="6"/><text fill="currentColor" y="9" dy="0.71em">1,900</text></g><g class="tick" opacity="1" transform="translate(122.4172932330827,0)"><line stroke="currentColor" y2="6"/><text fill="currentColor" y="9" dy="0.71em">1,910</text></g><g class="tick" opacity="1" transform="translate(175.42481203007517,0)"><line stroke="currentColor" y2="6"/><text fill="currentColor" y="9" dy="0.71em">1,920</text></g><g class="tick" opacity="1" transform="translate(228.43233082706766,0)"><line stroke="currentColor" y2="6"/><text fill="currentColor" y="9" dy="0.71em">1,930</text></g><g class="tick" opacity="1" transform="translate(281.4398496240601,0)"><line stroke="currentColor" y2="6"/><text fill="currentColor" y="9" dy="0.71em">1,940</text></g><g class="tick" opacity="1" transform="translate(334.4473684210526,0)"><line stroke="currentColor" y2="6"/><text fill="currentColor" y="9" dy="0.71em">1,950</text></g><g class="tick" opacity="1" transform="translate(387.45488721804514,0)"><line stroke="currentColor" y2="6"/><text fill="currentColor" y="9" dy="0.71em">1,960</text></g><g class="tick" opacity="1" transform="translate(440.46240601503763,0)"><line stroke="currentColor" y2="6"/><text fill="currentColor" y="9" dy="0.71em">1,970</text></g><g class="tick" opacity="1" transform="translate(493.4699248120301,0)"><line stroke="currentColor" y2="6"/><text fill="currentColor" y="9" dy="0.71em">1,980</text></g><g class="tick" opacity="1" transform="translate(546.4774436090225,0)"><line stroke="currentColor" y2="6"/><text fill="currentColor" y="9" dy="0.71em">1,990</text></g><g class="tick" opacity="1" transform="translate(599.484962406015,0)"><line stroke="currentColor" y2="6"/><text fill="currentColor" y="9" dy="0.71em">2,000</text></g><g class="tick" opacity="1" transform="translate(652.4924812030075,0)"><line stroke="currentColor" y2="6"/><text fill="currentColor" y="9" dy="0.71em">2,010</text></g><g class="tick" opacity="1" transform="translate(705.5,0)"><line stroke="currentColor" y2="6"/><text fill="currentColor" y="9" dy="0.71em">2,020</text></g></g><g id="yAxis" fill="none" font-size="10" font-family="sans-serif" text-anchor="end"><path class="domain" stroke="currentColor" d="M0.5,500.5V0.5"/><g class="tick" opacity="1" transform="translate(0,500.5)"><line stroke="currentColor" x2="-6"/><text fill="currentColor" x="-9" dy="0.32em">0</text></g><g class="tick" opacity="1" transform="translate(0,462.03846153846155)"><line stroke="currentColor" x2="-6"/><text fill="currentColor" x="-9" dy="0.32em">50</text></g><g class="tick" opacity="1" transform="translate(0,423.5769230769231)"><line stroke="currentColor" x2="-6"/><text fill="currentColor" x="-9" dy="0.32em">100</text></g><g class="tick" opacity="1" transform="translate(0,385.1153846153846)"><line stroke="currentColor" x2="-6"/><text fill="currentColor" x="-9" dy="0.32em">150</text></g><g class="tick" opacity="1" transform="translate(0,346.65384615384613)"><line stroke="currentColor" x2="-6"/><text fill="currentColor" x="-9" dy="0.32em">200</text></g><g class="tick" opacity="1" transform="translate(0,308.19230769230774)"><line stroke="currentColor" x2="-6"/><text fill="currentColor" x="-9" dy="0.32em">250</text></g><g class="tick" opacity="1" transform="translate(0,269.7307692307692)"><line stroke="currentColor" x2="-6"/><text fill="currentColor" x="-9" dy="0.32em">300</text></g><g class="tick" opacity="1" transform="translate(0,231.26923076923077)"><line stroke="currentColor" x2="-6"/><text fill="currentColor" x="-9" dy="0.32em">350</text></g><g class="tick" opacity="1" transform="translate(0,192.8076923076923)"><line stroke="currentColor" x2="-6"/><text fill="currentColor" x="-9" dy="0.32em">400</text></g><g class="tick" opacity="1" transform="translate(0,154.34615384615387)"><line stroke="currentColor" x2="-6"/><text fill="currentColor" x="-9" dy="0.32em">450</text></g><g class="tick" opacity="1" transform="translate(0,115.88461538461536)"><line stroke="currentColor" x2="-6"/><text fill="currentColor" x="-9" dy="0.32em">500</text></g><g class="tick" opacity="1" transform="translate(0,77.42307692307693)"><line stroke="currentColor" x2="-6"/><text fill="currentColor" x="-9" dy="0.32em">550</text></g><g class="tick" opacity="1" transform="translate(0,38.96153846153844)"><line stroke="currentColor" x2="-6"/><text fill="currentColor" x="-9" dy="0.32em">600</text></g><g class="tick" opacity="1" transform="translate(0,0.5)"><line stroke="currentColor" x2="-6"/><text fill="currentColor" x="-9" dy="0.32em">650</text></g></g><text y="496" x="705" text-anchor="end" style="font-family: Arial, sans-serif; font-size: 12px; fill: rgb(123, 123, 123); font-weight: bold;">publised_year</text><text x="4" text-anchor="start" dominant-baseline="hanging" style="font-family: Arial, sans-serif; font-size: 12px; fill: rgb(123, 123, 123); font-weight: bold;">total_s</text><g id="labels"><text x="689.0977443609022" y="253.84615384615384" text-anchor="middle" alignment-baseline="middle" style="font-family: Arial, sans-serif; font-size: 10px; fill: black; font-weight: bold;"/></g></g><text x="4" y="4" style="font-family: Arial, sans-serif; font-size: 12px; fill: black; font-weight: bold; dominant-baseline: hanging;"/></g></g></svg>