<svg xmlns="http://www.w3.org/2000/svg" width="805" height="600"><rect width="805" height="600" x="0" y="0" fill="#FFFFFF" id="backgorund"/><g id="viz"><g transform="translate(0,0)"><g transform="translate(50,50)"><g><path fill="#cccccc" d="M0,471.42857142857144L58.75,485.7142857142857L88.125,485.7142857142857L117.5,485.7142857142857L146.875,485.7142857142857L205.625,485.7142857142857L235,471.42857142857144L264.375,485.7142857142857L293.75,400L323.125,442.85714285714283L352.5,457.1428571428571L381.875,57.14285714285716L411.25,428.5714285714286L440.625,485.7142857142857L470,371.42857142857144L499.375,457.1428571428571L528.75,457.1428571428571L558.125,428.5714285714286L587.5,428.5714285714286L616.875,442.85714285714283L646.25,371.42857142857144L675.625,271.42857142857144L705,485.7142857142857L705,500L675.625,500L646.25,500L616.875,500L587.5,500L558.125,500L528.75,500L499.375,500L470,500L440.625,500L411.25,500L381.875,500L352.5,500L323.125,500L293.75,500L264.375,500L235,500L205.625,500L146.875,500L117.5,500L88.125,500L58.75,500L0,500Z"><title/></path></g><g id="xAxis" transform="translate(0,500)" fill="none" font-size="10" font-family="sans-serif" text-anchor="middle"><path class="domain" stroke="currentColor" d="M0.5,0.5H705.5"/><g class="tick" opacity="1" transform="translate(29.875,0)"><line stroke="currentColor" y2="6"/><text fill="currentColor" y="9" dy="0.71em">1,994</text></g><g class="tick" opacity="1" transform="translate(88.625,0)"><line stroke="currentColor" y2="6"/><text fill="currentColor" y="9" dy="0.71em">1,996</text></g><g class="tick" opacity="1" transform="translate(147.375,0)"><line stroke="currentColor" y2="6"/><text fill="currentColor" y="9" dy="0.71em">1,998</text></g><g class="tick" opacity="1" transform="translate(206.125,0)"><line stroke="currentColor" y2="6"/><text fill="currentColor" y="9" dy="0.71em">2,000</text></g><g class="tick" opacity="1" transform="translate(264.875,0)"><line stroke="currentColor" y2="6"/><text fill="currentColor" y="9" dy="0.71em">2,002</text></g><g class="tick" opacity="1" transform="translate(323.625,0)"><line stroke="currentColor" y2="6"/><text fill="currentColor" y="9" dy="0.71em">2,004</text></g><g class="tick" opacity="1" transform="translate(382.375,0)"><line stroke="currentColor" y2="6"/><text fill="currentColor" y="9" dy="0.71em">2,006</text></g><g class="tick" opacity="1" transform="translate(441.125,0)"><line stroke="currentColor" y2="6"/><text fill="currentColor" y="9" dy="0.71em">2,008</text></g><g class="tick" opacity="1" transform="translate(499.875,0)"><line stroke="currentColor" y2="6"/><text fill="currentColor" y="9" dy="0.71em">2,010</text></g><g class="tick" opacity="1" transform="translate(558.625,0)"><line stroke="currentColor" y2="6"/><text fill="currentColor" y="9" dy="0.71em">2,012</text></g><g class="tick" opacity="1" transform="translate(617.375,0)"><line stroke="currentColor" y2="6"/><text fill="currentColor" y="9" dy="0.71em">2,014</text></g><g class="tick" opacity="1" transform="translate(676.125,0)"><line stroke="currentColor" y2="6"/><text fill="currentColor" y="9" dy="0.71em">2,016</text></g></g><g id="yAxis" fill="none" font-size="10" font-family="sans-serif" text-anchor="end"><path class="domain" stroke="currentColor" d="M0.5,500.5V0.5"/><g class="tick" opacity="1" transform="translate(0,500.5)"><line stroke="currentColor" x2="-6"/><text fill="currentColor" x="-9" dy="0.32em">0</text></g><g class="tick" opacity="1" transform="translate(0,429.0714285714286)"><line stroke="currentColor" x2="-6"/><text fill="currentColor" x="-9" dy="0.32em">5</text></g><g class="tick" opacity="1" transform="translate(0,357.64285714285717)"><line stroke="currentColor" x2="-6"/><text fill="currentColor" x="-9" dy="0.32em">10</text></g><g class="tick" opacity="1" transform="translate(0,286.2142857142857)"><line stroke="currentColor" x2="-6"/><text fill="currentColor" x="-9" dy="0.32em">15</text></g><g class="tick" opacity="1" transform="translate(0,214.7857142857143)"><line stroke="currentColor" x2="-6"/><text fill="currentColor" x="-9" dy="0.32em">20</text></g><g class="tick" opacity="1" transform="translate(0,143.35714285714286)"><line stroke="currentColor" x2="-6"/><text fill="currentColor" x="-9" dy="0.32em">25</text></g><g class="tick" opacity="1" transform="translate(0,71.92857142857146)"><line stroke="currentColor" x2="-6"/><text fill="currentColor" x="-9" dy="0.32em">30</text></g><g class="tick" opacity="1" transform="translate(0,0.5)"><line stroke="currentColor" x2="-6"/><text fill="currentColor" x="-9" dy="0.32em">35</text></g></g><text y="496" x="705" text-anchor="end" style="font-family: Arial, sans-serif; font-size: 12px; fill: rgb(123, 123, 123); font-weight: bold;">publised_year</text><text x="4" text-anchor="start" dominant-baseline="hanging" style="font-family: Arial, sans-serif; font-size: 12px; fill: rgb(123, 123, 123); font-weight: bold;">total_p</text><g id="labels"><text x="381.875" y="278.57142857142856" text-anchor="middle" alignment-baseline="middle" style="font-family: Arial, sans-serif; font-size: 10px; fill: black; font-weight: bold;"/></g></g><text x="4" y="4" style="font-family: Arial, sans-serif; font-size: 12px; fill: black; font-weight: bold; dominant-baseline: hanging;"/></g></g></svg>