<svg xmlns="http://www.w3.org/2000/svg" width="1005" height="600"><rect width="1005" height="600" x="0" y="0" fill="#FFFFFF" id="backgorund"/><g transform="translate(20,20)" id="viz"><g id="nodes"><g transform="translate(383.5,281)"><path id="p_943.5" d="M-5.143516556418883e-14,280A280,280,0,1,1,5.143516556418883e-14,-280A280,280,0,1,1,-5.143516556418883e-14,280Z" fill="none" stroke="#ccc"/></g><g transform="translate(308.2383809507569,281)" id="100"><path id="p_790.9979633149413" d="M-3.7246331030812885e-14,202.75958236418444A202.75958236418444,202.75958236418444,0,1,1,3.7246331030812885e-14,-202.75958236418444A202.75958236418444,202.75958236418444,0,1,1,-3.7246331030812885e-14,202.75958236418444Z" fill="rgb(222, 77, 74)" stroke="none"/></g><g transform="translate(587.2489816574706,281)" id="13.41806933"><path id="p_941.5212014134274" d="M-1.364358542845521e-14,74.27221975595688A74.27221975595688,74.27221975595688,0,1,1,1.364358542845521e-14,-74.27221975595688A74.27221975595688,74.27221975595688,0,1,1,-1.364358542845521e-14,74.27221975595688Z" fill="rgb(94, 79, 162)" stroke="none"/></g><g transform="translate(527.0747845083507,370.7120305858399)" id="2.455573269"><path id="p_928.559786838937" d="M-5.836600221990441e-15,31.77297174474638A31.77297174474638,31.77297174474638,0,1,1,5.836600221990441e-15,-31.77297174474638A31.77297174474638,31.77297174474638,0,1,1,-5.836600221990441e-15,31.77297174474638Z" fill="rgb(69, 117, 177)" stroke="none"/></g><g transform="translate(526.4921912393127,193.21576181808024)" id="2.263919465"><path id="p_749.2158221907828" d="M-5.604204642451844e-15,30.507869133389917A30.507869133389917,30.507869133389917,0,1,1,5.604204642451844e-15,-30.507869133389917A30.507869133389917,30.507869133389917,0,1,1,-5.604204642451844e-15,30.507869133389917Z" fill="rgb(249, 152, 88)" stroke="none"/></g><g transform="translate(495.0210074807658,140.19236316577695)" id="2.070140355"><path id="p_663.3863835274827" d="M-5.358995526919169e-15,29.173012880940096A29.173012880940096,29.173012880940096,0,1,1,5.358995526919169e-15,-29.173012880940096A29.173012880940096,29.173012880940096,0,1,1,-5.358995526919169e-15,29.173012880940096Z" fill="rgb(105, 189, 169)" stroke="none"/></g><g transform="translate(493.15469821172013,422.2794983470688)" id="1.90314654"><path id="p_942.4058090388183" d="M-5.1383018535987286e-15,27.971612480029425A27.971612480029425,27.971612480029425,0,1,1,5.1383018535987286e-15,-27.971612480029425A27.971612480029425,27.971612480029425,0,1,1,-5.1383018535987286e-15,27.971612480029425Z" fill="rgb(245, 250, 174)" stroke="none"/></g><g transform="translate(453.0378911857759,100.92282623963851)" id="1.686895259"><path id="p_579.2952398489407" d="M-4.837573288956846e-15,26.33452242352627A26.33452242352627,26.33452242352627,0,1,1,4.837573288956846e-15,-26.33452242352627A26.33452242352627,26.33452242352627,0,1,1,-4.837573288956846e-15,26.33452242352627Z" fill="rgb(193, 41, 73)" stroke="none"/></g><g transform="translate(453.3339293088519,453.36608387851675)" id="1.028974131"><path id="p_926.2676131269383" d="M-3.778206814820583e-15,20.567599939569615A20.567599939569615,20.567599939569615,0,1,1,3.778206814820583e-15,-20.567599939569615A20.567599939569615,20.567599939569615,0,1,1,-3.778206814820583e-15,20.567599939569615Z" fill="rgb(224, 243, 161)" stroke="none"/></g><g transform="translate(410.27807434478984,82.91538355759576)" id="0.795435109"><path id="p_510.2770110135219" d="M-3.3218948152146364e-15,18.08355311113631A18.08355311113631,18.08355311113631,0,1,1,3.3218948152146364e-15,-18.08355311113631A18.08355311113631,18.08355311113631,0,1,1,-3.3218948152146364e-15,18.08355311113631Z" fill="rgb(190, 229, 160)" stroke="none"/></g><g transform="translate(420.2880872780817,468.7482060868266)" id="0.470242327"><path id="p_901.9403730133251" d="M-2.5541379954785393e-15,13.904079648416886A13.904079648416886,13.904079648416886,0,1,1,2.5541379954785393e-15,-13.904079648416886A13.904079648416886,13.904079648416886,0,1,1,-2.5541379954785393e-15,13.904079648416886Z" fill="rgb(240, 112, 74)" stroke="none"/></g><g transform="translate(537.0579630161496,149.98987215104125)" id="0.350956229"><path id="p_698.0596288897013" d="M-2.2065307101435954e-15,12.011793722510404A12.011793722510404,12.011793722510404,0,1,1,2.2065307101435954e-15,-12.011793722510404A12.011793722510404,12.011793722510404,0,1,1,-2.2065307101435954e-15,12.011793722510404Z" fill="rgb(253, 190, 112)" stroke="none"/></g><g transform="translate(530.2224225507227,412.6848658746605)" id="0.169144246"><path id="p_950.2462121656553" d="M-1.5318354400286912e-15,8.33892374027197A8.33892374027197,8.33892374027197,0,1,1,1.5318354400286912e-15,-8.33892374027197A8.33892374027197,8.33892374027197,0,1,1,-1.5318354400286912e-15,8.33892374027197Z" fill="rgb(253, 243, 169)" stroke="none"/></g><g transform="translate(565.9727583149977,199.93320116086457)" id="0.139068693"><path id="p_772.4672526021359" d="M-1.3889870136758814e-15,7.561293126273624A7.561293126273624,7.561293126273624,0,1,1,1.3889870136758814e-15,-7.561293126273624A7.561293126273624,7.561293126273624,0,1,1,-1.3889870136758814e-15,7.561293126273624Z" fill="rgb(158, 1, 66)" stroke="none"/></g><g transform="translate(565.2863567725877,360.15249555702525)" id="0.084442637"><path id="p_930.330846135038" d="M-1.082341703161471e-15,5.891993805425039A5.891993805425039,5.891993805425039,0,1,1,1.082341703161471e-15,-5.891993805425039A5.891993805425039,5.891993805425039,0,1,1,-1.082341703161471e-15,5.891993805425039Z" fill="rgb(72, 155, 179)" stroke="none"/></g><g transform="translate(406.10514613796397,461.0972144571342)" id="0.000131069"><path id="p_866.4344906536738" d="M-4.2641599983085297e-17,0.23213005857565921A0.23213005857565921,0.23213005857565921,0,1,1,4.2641599983085297e-17,-0.23213005857565921A0.23213005857565921,0.23213005857565921,0,1,1,-4.2641599983085297e-17,0.23213005857565921Z" fill="rgb(254, 221, 141)" stroke="none"/></g><g transform="translate(474.55733314882445,445.7564047824536)" id="0"><path id="p_919.3137379312781" d="M0,0Z" fill="rgb(148, 212, 164)" stroke="none"/></g></g><g id="labels"><g transform="translate(308.2383809507569,281)"><text text-anchor="middle" dominant-baseline="text-before-edge" transform="translate(0,0)"/></g><g transform="translate(587.2489816574706,281)"><text text-anchor="middle" dominant-baseline="text-before-edge" transform="translate(0,0)"/></g><g transform="translate(527.0747845083507,370.7120305858399)"><text text-anchor="middle" dominant-baseline="text-before-edge" transform="translate(0,0)"/></g><g transform="translate(526.4921912393127,193.21576181808024)"><text text-anchor="middle" dominant-baseline="text-before-edge" transform="translate(0,0)"/></g><g transform="translate(495.0210074807658,140.19236316577695)"><text text-anchor="middle" dominant-baseline="text-before-edge" transform="translate(0,0)"/></g><g transform="translate(493.15469821172013,422.2794983470688)"><text text-anchor="middle" dominant-baseline="text-before-edge" transform="translate(0,0)"/></g><g transform="translate(453.0378911857759,100.92282623963851)"><text text-anchor="middle" dominant-baseline="text-before-edge" transform="translate(0,0)"/></g><g transform="translate(453.3339293088519,453.36608387851675)"><text text-anchor="middle" dominant-baseline="text-before-edge" transform="translate(0,0)"/></g><g transform="translate(410.27807434478984,82.91538355759576)"><text text-anchor="middle" dominant-baseline="text-before-edge" transform="translate(0,0)"/></g><g transform="translate(420.2880872780817,468.7482060868266)"><text text-anchor="middle" dominant-baseline="text-before-edge" transform="translate(0,0)"/></g><g transform="translate(537.0579630161496,149.98987215104125)"><text text-anchor="middle" dominant-baseline="text-before-edge" transform="translate(0,0)"/></g><g transform="translate(530.2224225507227,412.6848658746605)"><text text-anchor="middle" dominant-baseline="text-before-edge" transform="translate(0,0)"/></g><g transform="translate(565.9727583149977,199.93320116086457)"><text text-anchor="middle" dominant-baseline="text-before-edge" transform="translate(0,0)"/></g><g transform="translate(565.2863567725877,360.15249555702525)"><text text-anchor="middle" dominant-baseline="text-before-edge" transform="translate(0,0)"/></g><g transform="translate(406.10514613796397,461.0972144571342)"><text text-anchor="middle" dominant-baseline="text-before-edge" transform="translate(0,0)"/></g><g transform="translate(474.55733314882445,445.7564047824536)"><text text-anchor="middle" dominant-baseline="text-before-edge" transform="translate(0,0)"/></g></g></g><g id="legend" transform="translate(805,20)"><g transform="translate(5,0)"><g class="legendSize" transform="translate(0,0)"><g class="legendCells" transform="translate(50,16)"><g class="cell" transform="translate(0, 25)"><circle class="swatch" r="25" fill="none" stroke="#ccc"/><text class="label" transform="translate( 55,&#10;          5)" font-family="&quot;Arial&quot;, sans-serif" font-size="10px"><tspan x="0" dy="0em">1.5</tspan></text></g><g class="cell" transform="translate(0, 125)"><circle class="swatch" r="50" fill="none" stroke="#ccc"/><text class="label" transform="translate( 55,&#10;          5)" font-family="&quot;Arial&quot;, sans-serif" font-size="10px"><tspan x="0" dy="0em">6.1</tspan></text></g></g><text class="legendTitle" font-family="&quot;Arial&quot;, sans-serif" font-size="12px" font-weight="bold"><tspan x="0" dy="0em">total [sum]</tspan></text></g><g class="legendColor" transform="translate(0,224)"><g class="legendCells" transform="translate(0,16)"><g class="cell" transform="translate(0, 0)"><rect class="swatch" height="15" width="15" style="fill: rgb(158, 1, 66);"/><text class="label" transform="translate( 20, 12.5)" font-family="&quot;Arial&quot;, sans-serif" font-size="10px"><tspan x="0" dy="0em">al</tspan></text></g><g class="cell" transform="translate(0, 21)"><rect class="swatch" height="15" width="15" style="fill: rgb(193, 41, 73);"/><text class="label" transform="translate( 20, 12.5)" font-family="&quot;Arial&quot;, sans-serif" font-size="10px"><tspan x="0" dy="0em">ba</tspan></text></g><g class="cell" transform="translate(0, 42)"><rect class="swatch" height="15" width="15" style="fill: rgb(222, 77, 74);"/><text class="label" transform="translate( 20, 12.5)" font-family="&quot;Arial&quot;, sans-serif" font-size="10px"><tspan x="0" dy="0em">before</tspan></text></g><g class="cell" transform="translate(0, 63)"><rect class="swatch" height="15" width="15" style="fill: rgb(240, 112, 74);"/><text class="label" transform="translate( 20, 12.5)" font-family="&quot;Arial&quot;, sans-serif" font-size="10px"><tspan x="0" dy="0em">es</tspan></text></g><g class="cell" transform="translate(0, 84)"><rect class="swatch" height="15" width="15" style="fill: rgb(249, 152, 88);"/><text class="label" transform="translate( 20, 12.5)" font-family="&quot;Arial&quot;, sans-serif" font-size="10px"><tspan x="0" dy="0em">mg</tspan></text></g><g class="cell" transform="translate(0, 105)"><rect class="swatch" height="15" width="15" style="fill: rgb(253, 190, 112);"/><text class="label" transform="translate( 20, 12.5)" font-family="&quot;Arial&quot;, sans-serif" font-size="10px"><tspan x="0" dy="0em">ms</tspan></text></g><g class="cell" transform="translate(0, 126)"><rect class="swatch" height="15" width="15" style="fill: rgb(254, 221, 141);"/><text class="label" transform="translate( 20, 12.5)" font-family="&quot;Arial&quot;, sans-serif" font-size="10px"><tspan x="0" dy="0em">pb</tspan></text></g><g class="cell" transform="translate(0, 147)"><rect class="swatch" height="15" width="15" style="fill: rgb(253, 243, 169);"/><text class="label" transform="translate( 20, 12.5)" font-family="&quot;Arial&quot;, sans-serif" font-size="10px"><tspan x="0" dy="0em">pe</tspan></text></g><g class="cell" transform="translate(0, 168)"><rect class="swatch" height="15" width="15" style="fill: rgb(245, 250, 174);"/><text class="label" transform="translate( 20, 12.5)" font-family="&quot;Arial&quot;, sans-serif" font-size="10px"><tspan x="0" dy="0em">pr</tspan></text></g><g class="cell" transform="translate(0, 189)"><rect class="swatch" height="15" width="15" style="fill: rgb(224, 243, 161);"/><text class="label" transform="translate( 20, 12.5)" font-family="&quot;Arial&quot;, sans-serif" font-size="10px"><tspan x="0" dy="0em">rgs</tspan></text></g><g class="cell" transform="translate(0, 210)"><rect class="swatch" height="15" width="15" style="fill: rgb(190, 229, 160);"/><text class="label" transform="translate( 20, 12.5)" font-family="&quot;Arial&quot;, sans-serif" font-size="10px"><tspan x="0" dy="0em">rj</tspan></text></g><g class="cell" transform="translate(0, 231)"><rect class="swatch" height="15" width="15" style="fill: rgb(148, 212, 164);"/><text class="label" transform="translate( 20, 12.5)" font-family="&quot;Arial&quot;, sans-serif" font-size="10px"><tspan x="0" dy="0em">rn</tspan></text></g><g class="cell" transform="translate(0, 252)"><rect class="swatch" height="15" width="15" style="fill: rgb(105, 189, 169);"/><text class="label" transform="translate( 20, 12.5)" font-family="&quot;Arial&quot;, sans-serif" font-size="10px"><tspan x="0" dy="0em">sc</tspan></text></g><g class="cell" transform="translate(0, 273)"><rect class="swatch" height="15" width="15" style="fill: rgb(72, 155, 179);"/><text class="label" transform="translate( 20, 12.5)" font-family="&quot;Arial&quot;, sans-serif" font-size="10px"><tspan x="0" dy="0em">se</tspan></text></g><g class="cell" transform="translate(0, 294)"><rect class="swatch" height="15" width="15" style="fill: rgb(69, 117, 177);"/><text class="label" transform="translate( 20, 12.5)" font-family="&quot;Arial&quot;, sans-serif" font-size="10px"><tspan x="0" dy="0em">sp</tspan></text></g><g class="cell" transform="translate(0, 315)"><rect class="swatch" height="15" width="15" style="fill: rgb(94, 79, 162);"/><text class="label" transform="translate( 20, 12.5)" font-family="&quot;Arial&quot;, sans-serif" font-size="10px"><tspan x="0" dy="0em">total</tspan></text></g></g><text class="legendTitle" font-family="&quot;Arial&quot;, sans-serif" font-size="12px" font-weight="bold"><tspan x="0" dy="0em">region [csvDistinct]</tspan></text></g></g></g></svg>