<svg xmlns="http://www.w3.org/2000/svg" width="1005" height="600"><rect width="1005" height="600" x="0" y="0" fill="#FFFFFF" id="backgorund"/><g id="viz"><g transform="translate(0,0)"><g id="pie" transform="translate(402.5,304)"><path fill="#a8b19d" stroke="#FFFFFF" d="M1.8002307947466092e-14,-294A294,294,0,1,1,-148.08623942115523,-253.98123098784347L-122.90150482572065,-210.787144085149A244,244,0,1,0,1.494069094959771e-14,-244Z"/><path fill="#7f9b57" stroke="#FFFFFF" d="M-148.08623942115523,-253.98123098784347A294,294,0,0,1,-5.400692384239827e-14,-294L-4.482207284879313e-14,-244A244,244,0,0,0,-122.90150482572065,-210.787144085149Z"/></g><text y="6" x="402.5" style="font-family: Arial, sans-serif; font-size: 12px; fill: black; font-weight: bold; dominant-baseline: auto; text-anchor: middle;"/></g></g><g id="legend" transform="translate(805,10)"><g transform="translate(5,0)"><g class="legendColor" transform="translate(0,0)"><g class="legendCells" transform="translate(0,16)"><g class="cell" transform="translate(0, 0)"><rect class="swatch" height="15" width="15" style="fill: rgb(127, 155, 87);"/><text class="label" transform="translate( 20, 12.5)" font-family="&quot;Arial&quot;, sans-serif" font-size="10px"><tspan x="0" dy="0em">diff</tspan></text></g><g class="cell" transform="translate(0, 21)"><rect class="swatch" height="15" width="15" style="fill: rgb(168, 177, 157);"/><text class="label" transform="translate( 20, 12.5)" font-family="&quot;Arial&quot;, sans-serif" font-size="10px"><tspan x="0" dy="0em">total</tspan></text></g></g><text class="legendTitle" font-family="&quot;Arial&quot;, sans-serif" font-size="12px" font-weight="bold"><tspan x="0" dy="0em">Arcs colors</tspan></text></g></g></g></svg>