<svg xmlns="http://www.w3.org/2000/svg" width="805" height="600"><rect width="805" height="600" x="0" y="0" fill="#FFFFFF" id="backgorund"/><g id="viz"><g transform="translate(0,0)"><g transform="translate(50,50)"><g><path fill="#cccccc" d="M0,450L453.2142857142857,450L463.2857142857143,450L493.49999999999994,450L503.57142857142856,450L523.7142857142858,450L533.7857142857142,450L543.8571428571429,350L553.9285714285714,350L564,450L574.0714285714286,300L584.1428571428572,350L594.2142857142857,200L604.2857142857142,400L614.3571428571429,250L624.4285714285714,200L634.5,99.99999999999997L644.5714285714286,49.999999999999986L654.6428571428571,250L664.7142857142857,300L674.7857142857143,250L684.8571428571429,0L694.9285714285714,49.999999999999986L705,300L705,500L694.9285714285714,500L684.8571428571429,500L674.7857142857143,500L664.7142857142857,500L654.6428571428571,500L644.5714285714286,500L634.5,500L624.4285714285714,500L614.3571428571429,500L604.2857142857142,500L594.2142857142857,500L584.1428571428572,500L574.0714285714286,500L564,500L553.9285714285714,500L543.8571428571429,500L533.7857142857142,500L523.7142857142858,500L503.57142857142856,500L493.49999999999994,500L463.2857142857143,500L453.2142857142857,500L0,500Z"><title/></path></g><g id="xAxis" transform="translate(0,500)" fill="none" font-size="10" font-family="sans-serif" text-anchor="middle"><path class="domain" stroke="currentColor" d="M0.5,0.5H705.5"/><g class="tick" opacity="1" transform="translate(0.5,0)"><line stroke="currentColor" y2="6"/><text fill="currentColor" y="9" dy="0.71em">1,945</text></g><g class="tick" opacity="1" transform="translate(50.857142857142854,0)"><line stroke="currentColor" y2="6"/><text fill="currentColor" y="9" dy="0.71em">1,950</text></g><g class="tick" opacity="1" transform="translate(101.21428571428571,0)"><line stroke="currentColor" y2="6"/><text fill="currentColor" y="9" dy="0.71em">1,955</text></g><g class="tick" opacity="1" transform="translate(151.57142857142856,0)"><line stroke="currentColor" y2="6"/><text fill="currentColor" y="9" dy="0.71em">1,960</text></g><g class="tick" opacity="1" transform="translate(201.92857142857142,0)"><line stroke="currentColor" y2="6"/><text fill="currentColor" y="9" dy="0.71em">1,965</text></g><g class="tick" opacity="1" transform="translate(252.28571428571428,0)"><line stroke="currentColor" y2="6"/><text fill="currentColor" y="9" dy="0.71em">1,970</text></g><g class="tick" opacity="1" transform="translate(302.6428571428571,0)"><line stroke="currentColor" y2="6"/><text fill="currentColor" y="9" dy="0.71em">1,975</text></g><g class="tick" opacity="1" transform="translate(353,0)"><line stroke="currentColor" y2="6"/><text fill="currentColor" y="9" dy="0.71em">1,980</text></g><g class="tick" opacity="1" transform="translate(403.35714285714283,0)"><line stroke="currentColor" y2="6"/><text fill="currentColor" y="9" dy="0.71em">1,985</text></g><g class="tick" opacity="1" transform="translate(453.7142857142857,0)"><line stroke="currentColor" y2="6"/><text fill="currentColor" y="9" dy="0.71em">1,990</text></g><g class="tick" opacity="1" transform="translate(504.07142857142856,0)"><line stroke="currentColor" y2="6"/><text fill="currentColor" y="9" dy="0.71em">1,995</text></g><g class="tick" opacity="1" transform="translate(554.4285714285714,0)"><line stroke="currentColor" y2="6"/><text fill="currentColor" y="9" dy="0.71em">2,000</text></g><g class="tick" opacity="1" transform="translate(604.7857142857142,0)"><line stroke="currentColor" y2="6"/><text fill="currentColor" y="9" dy="0.71em">2,005</text></g><g class="tick" opacity="1" transform="translate(655.1428571428571,0)"><line stroke="currentColor" y2="6"/><text fill="currentColor" y="9" dy="0.71em">2,010</text></g><g class="tick" opacity="1" transform="translate(705.5,0)"><line stroke="currentColor" y2="6"/><text fill="currentColor" y="9" dy="0.71em">2,015</text></g></g><g id="yAxis" fill="none" font-size="10" font-family="sans-serif" text-anchor="end"><path class="domain" stroke="currentColor" d="M0.5,500.5V0.5"/><g class="tick" opacity="1" transform="translate(0,500.5)"><line stroke="currentColor" x2="-6"/><text fill="currentColor" x="-9" dy="0.32em">0</text></g><g class="tick" opacity="1" transform="translate(0,450.5)"><line stroke="currentColor" x2="-6"/><text fill="currentColor" x="-9" dy="0.32em">1</text></g><g class="tick" opacity="1" transform="translate(0,400.5)"><line stroke="currentColor" x2="-6"/><text fill="currentColor" x="-9" dy="0.32em">2</text></g><g class="tick" opacity="1" transform="translate(0,350.5)"><line stroke="currentColor" x2="-6"/><text fill="currentColor" x="-9" dy="0.32em">3</text></g><g class="tick" opacity="1" transform="translate(0,300.5)"><line stroke="currentColor" x2="-6"/><text fill="currentColor" x="-9" dy="0.32em">4</text></g><g class="tick" opacity="1" transform="translate(0,250.5)"><line stroke="currentColor" x2="-6"/><text fill="currentColor" x="-9" dy="0.32em">5</text></g><g class="tick" opacity="1" transform="translate(0,200.5)"><line stroke="currentColor" x2="-6"/><text fill="currentColor" x="-9" dy="0.32em">6</text></g><g class="tick" opacity="1" transform="translate(0,150.50000000000003)"><line stroke="currentColor" x2="-6"/><text fill="currentColor" x="-9" dy="0.32em">7</text></g><g class="tick" opacity="1" transform="translate(0,100.49999999999997)"><line stroke="currentColor" x2="-6"/><text fill="currentColor" x="-9" dy="0.32em">8</text></g><g class="tick" opacity="1" transform="translate(0,50.499999999999986)"><line stroke="currentColor" x2="-6"/><text fill="currentColor" x="-9" dy="0.32em">9</text></g><g class="tick" opacity="1" transform="translate(0,0.5)"><line stroke="currentColor" x2="-6"/><text fill="currentColor" x="-9" dy="0.32em">10</text></g></g><text y="496" x="705" text-anchor="end" style="font-family: Arial, sans-serif; font-size: 12px; fill: rgb(123, 123, 123); font-weight: bold;">publised_year</text><text x="4" text-anchor="start" dominant-baseline="hanging" style="font-family: Arial, sans-serif; font-size: 12px; fill: rgb(123, 123, 123); font-weight: bold;">total_p</text><g id="labels"><text x="684.8571428571429" y="250" text-anchor="middle" alignment-baseline="middle" style="font-family: Arial, sans-serif; font-size: 10px; fill: black; font-weight: bold;"/></g></g><text x="4" y="4" style="font-family: Arial, sans-serif; font-size: 12px; fill: black; font-weight: bold; dominant-baseline: hanging;"/></g></g></svg>