<?xml version="1.0" encoding="utf-8"?>
<!-- Generator: Adobe Illustrator 27.4.0, SVG Export Plug-In . SVG Version: 6.00 Build 0)  -->
<svg version="1.1" id="Layer_1" xmlns="http://www.w3.org/2000/svg" xmlns:xlink="http://www.w3.org/1999/xlink" x="0px" y="0px"
	 viewBox="0 0 1224 792" style="enable-background:new 0 0 1224 792;" xml:space="preserve">
<style type="text/css">
	.st0{opacity:0.3;fill:#77425C;}
	.st1{fill:#FFFFFF;stroke:#000000;stroke-miterlimit:10;}
</style>
<rect class="st0" width="1224" height="792"/>
<rect x="18.61" y="28.62" class="st1" width="477.92" height="753.34"/>
<rect x="564.17" y="28.62" class="st1" width="629.29" height="210.9"/>
<rect x="564.17" y="248.24" class="st1" width="209.76" height="125.86"/>
<rect x="773.94" y="248.24" class="st1" width="209.76" height="125.86"/>
<rect x="983.7" y="248.24" class="st1" width="209.76" height="125.86"/>
<rect x="564.17" y="384.19" class="st1" width="209.76" height="125.86"/>
<rect x="773.94" y="384.19" class="st1" width="209.76" height="125.86"/>
<rect x="983.7" y="384.19" class="st1" width="209.76" height="125.86"/>
<rect x="564.17" y="520.15" class="st1" width="209.76" height="125.86"/>
<rect x="773.94" y="520.15" class="st1" width="209.76" height="125.86"/>
<rect x="983.7" y="520.15" class="st1" width="209.76" height="125.86"/>
<rect x="564.17" y="656.11" class="st1" width="209.76" height="125.86"/>
<rect x="773.94" y="656.11" class="st1" width="209.76" height="125.86"/>
<rect x="983.7" y="656.11" class="st1" width="209.76" height="125.86"/>
</svg>
